<?xml version="1.0" encoding="UTF-8"?>
<svg id="Layer_3" data-name="Layer 3" xmlns="http://www.w3.org/2000/svg" viewBox="0 0 205.51 109.48">
  <defs>
    <style>
      .cls-1 {
        fill: #ece7dd;
      }
    </style>
  </defs>
  <g id="Design">
    <g>
      <path class="cls-1" d="M191.64,42.4H3.13c-1.18,1.95-1.51,2.5-2.7,4.45l14.48,18.41h187.9c1.18-1.95,1.51-2.5,2.7-4.45l-13.87-18.41Z"/>
      <path class="cls-1" d="M92.43,86.63H2.7c-1.18,1.95-1.51,2.5-2.7,4.45l13.87,18.41h91.68c1.18-1.95,1.51-2.5,2.7-4.45l-13.87-18.41h-1.95Z"/>
      <path class="cls-1" d="M111.53,22.86h91.29c1.18-1.95,1.51-2.5,2.7-4.45L191.64,0h-91.68c-1.18,1.95-1.51,2.5-2.7,4.45l13.87,18.41h.4Z"/>
    </g>
  </g>
</svg>