<?xml version="1.0" encoding="UTF-8"?>
<svg id="Layer_2" data-name="Layer 2" xmlns="http://www.w3.org/2000/svg" viewBox="0 0 592.74 299.72">
  <defs>
    <style>
      .cls-1 {
        fill: #ede7dd;
      }
    </style>
  </defs>
  <g id="Design">
    <g>
      <g>
        <path class="cls-1" d="M64.25,214.3H0v85.28h20.73v-22.9h43.52c22.11,0,36.4-12.24,36.4-31.19s-13.95-31.19-36.4-31.19ZM60.86,259.3H20.73v-27.52h40.13c18.58,0,18.58,10.31,18.58,13.7s0,13.82-18.58,13.82Z"/>
        <path class="cls-1" d="M271.41,214.3h-64.25v85.28h20.73v-22.9h28.94l22.16,22.88h27.17l-23.31-24.11c15.47-3.54,24.96-14.52,24.96-29.96,0-19.24-13.95-31.19-36.4-31.19ZM268.02,259.3h-40.13v-27.52h40.13c18.58,0,18.58,10.31,18.58,13.7s0,13.82-18.58,13.82Z"/>
        <polygon class="cls-1" points="407.06 277.99 345.35 214.3 318.3 214.3 318.3 299.58 339.02 299.58 339.02 235.89 400.72 299.58 427.66 299.58 427.66 214.3 407.06 214.3 407.06 277.99"/>
        <rect class="cls-1" x="440.8" y="214.3" width="20.73" height="85.28"/>
        <path class="cls-1" d="M542.75,214.3h-23.16l-50.24,85.28h22.68l10.53-18.46h57.09l10.53,18.46h22.55l-49.98-85.28ZM511.68,265.23l19.49-34.11,19.39,34.11h-38.88Z"/>
        <polygon class="cls-1" points="109.22 299.72 198.59 299.72 198.59 283.31 130.03 283.31 130.03 264.61 196.16 264.61 196.16 249.11 130.03 249.11 130.03 230.41 198.59 230.41 198.59 214.11 109.22 214.11 109.22 299.72"/>
      </g>
      <g>
        <polygon class="cls-1" points="396.35 0 301.52 0 291.22 0 196.39 0 136.01 38.36 136.01 46.88 291.22 46.88 301.52 46.88 456.73 46.88 456.73 38.36 396.35 0"/>
        <polygon class="cls-1" points="396.35 73.82 301.52 73.82 291.22 73.82 196.39 73.82 136.01 103.25 136.01 111.78 291.22 111.78 301.52 111.78 456.73 111.78 456.73 103.25 396.35 73.82"/>
        <polygon class="cls-1" points="396.35 138.72 301.52 138.72 291.22 138.72 196.39 138.72 136.01 162.79 136.01 171.31 291.22 171.31 301.52 171.31 456.73 171.31 456.73 162.79 396.35 138.72"/>
      </g>
    </g>
  </g>
</svg>