<?xml version="1.0" encoding="UTF-8"?>
<svg id="Layer_2" data-name="Layer 2" xmlns="http://www.w3.org/2000/svg" viewBox="0 0 320.71 171.31">
  <defs>
    <style>
      .cls-1 {
        fill: #111;
      }
    </style>
  </defs>
  <g id="Design">
    <g>
      <polygon class="cls-1" points="260.33 0 165.51 0 155.21 0 60.38 0 0 38.36 0 46.88 155.21 46.88 165.51 46.88 320.71 46.88 320.71 38.36 260.33 0"/>
      <polygon class="cls-1" points="260.33 73.82 165.51 73.82 155.21 73.82 60.38 73.82 0 103.25 0 111.78 155.21 111.78 165.51 111.78 320.71 111.78 320.71 103.25 260.33 73.82"/>
      <polygon class="cls-1" points="260.33 138.72 165.51 138.72 155.21 138.72 60.38 138.72 0 162.79 0 171.31 155.21 171.31 165.51 171.31 320.71 171.31 320.71 162.79 260.33 138.72"/>
    </g>
  </g>
</svg>