<?xml version="1.0" encoding="UTF-8"?>
<svg id="Layer_2" data-name="Layer 2" xmlns="http://www.w3.org/2000/svg" viewBox="0 0 592.74 85.64">
  <defs>
    <style>
      .cls-1 {
        fill: #ede7dd;
      }
    </style>
  </defs>
  <g id="Design">
    <g>
      <path class="cls-1" d="M64.25.19H0v85.28h20.73v-22.9h43.52c22.11,0,36.4-12.24,36.4-31.19S86.7.19,64.25.19ZM60.86,45.19H20.73v-27.52h40.13c18.58,0,18.58,10.31,18.58,13.7s0,13.82-18.58,13.82Z"/>
      <path class="cls-1" d="M271.41.19h-64.25v85.28h20.73v-22.9h28.94l22.16,22.88h27.17l-23.31-24.11c15.47-3.54,24.96-14.52,24.96-29.96,0-19.24-13.95-31.19-36.4-31.19ZM268.02,45.19h-40.13v-27.52h40.13c18.58,0,18.58,10.31,18.58,13.7s0,13.82-18.58,13.82Z"/>
      <polygon class="cls-1" points="407.06 63.88 345.35 .19 318.3 .19 318.3 85.47 339.02 85.47 339.02 21.78 400.72 85.47 427.66 85.47 427.66 .19 407.06 .19 407.06 63.88"/>
      <rect class="cls-1" x="440.8" y=".19" width="20.73" height="85.28"/>
      <path class="cls-1" d="M542.75.19h-23.16l-50.24,85.28h22.68l10.53-18.46h57.09l10.53,18.46h22.55L542.75.19ZM511.68,51.12l19.49-34.11,19.39,34.11h-38.88Z"/>
      <polygon class="cls-1" points="186.62 0 162.53 0 140.57 0 116.47 0 106.7 12.44 106.7 16.05 140.57 16.05 162.53 16.05 196.4 16.05 196.4 12.44 186.62 0"/>
      <polygon class="cls-1" points="186.62 35.11 162.53 35.11 140.57 35.11 116.47 35.11 106.7 47.55 106.7 51.16 140.57 51.16 162.53 51.16 196.4 51.16 196.4 47.55 186.62 35.11"/>
      <polygon class="cls-1" points="186.62 69.6 162.53 69.6 140.57 69.6 116.47 69.6 106.7 82.04 106.7 85.64 140.57 85.64 162.53 85.64 196.4 85.64 196.4 82.04 186.62 69.6"/>
    </g>
  </g>
</svg>